<?xml version="1.0" encoding="UTF-8"?>
<svg width="50px" height="50px" viewBox="0 0 50 50" version="1.1" xmlns="http://www.w3.org/2000/svg" xmlns:xlink="http://www.w3.org/1999/xlink">
    <!-- Generator: Sketch 53.2 (72643) - https://sketchapp.com -->
    <title>ic_white_up_arrow</title>
    <desc>Created with Sketch.</desc>
    <g id="ic_white_up_arrow" stroke="none" stroke-width="1" fill="none" fill-rule="evenodd">
        <path d="M29.4370655,15.4797016 L16.8715775,2.91421356 C16.0905289,2.13316498 16.0905289,0.866835021 16.8715775,0.0857864376 C17.6526261,-0.695262146 18.9189561,-0.695262146 19.7000047,0.0857864376 L33.6797062,14.065488 C34.4607548,14.8465366 34.4607548,16.1128665 33.6797062,16.8939151 L19.7000047,30.8736167 C18.9189561,31.6546653 17.6526261,31.6546653 16.8715775,30.8736167 C16.0905289,30.0925681 16.0905289,28.8262381 16.8715775,28.0451896 L29.4370655,15.4797016 Z" id="Path" fill="#FFFFFF" fill-rule="nonzero" transform="translate(25.275642, 15.479702) rotate(-90.000000) translate(-25.275642, -15.479702) "></path>
        <path d="M42.0512837,23.2654926 C43.1558532,23.2654926 44.0512837,24.1609231 44.0512837,25.2654926 C44.0512837,26.3700621 43.1558532,27.2654926 42.0512837,27.2654926 L8.5,27.2654926 C7.3954305,27.2654926 6.5,26.3700621 6.5,25.2654926 C6.5,24.1609231 7.3954305,23.2654926 8.5,23.2654926 L42.0512837,23.2654926 Z" id="Path" fill="#FFFFFF" fill-rule="nonzero" transform="translate(25.275642, 25.265493) rotate(-90.000000) translate(-25.275642, -25.265493) "></path>
    </g>
</svg>