<?xml version="1.0" encoding="UTF-8"?>
<svg width="50px" height="50px" viewBox="0 0 50 50" version="1.1" xmlns="http://www.w3.org/2000/svg" xmlns:xlink="http://www.w3.org/1999/xlink">
    <!-- Generator: Sketch 53.2 (72643) - https://sketchapp.com -->
    <title>icon_ig</title>
    <desc>Created with Sketch.</desc>
    <g id="icon_ig" stroke="none" stroke-width="1" fill="none" fill-rule="evenodd">
        <path d="M16.055,6 C10.511,6 6,10.51 6,16.054 L6,33.445 C6,38.989 10.511,43.5 16.055,43.5 L33.446,43.5 C38.99,43.5 43.5,38.989 43.5,33.445 L43.5,16.054 C43.5,10.51 38.99,6 33.446,6 L16.055,6 Z M33.446,46 L16.055,46 C9.132,46 3.5,40.368 3.5,33.445 L3.5,16.054 C3.5,9.132 9.132,3.5 16.055,3.5 L33.446,3.5 C40.368,3.5 46,9.132 46,16.054 L46,33.445 C46,40.368 40.368,46 33.446,46 L33.446,46 Z" id="Fill-3" fill="#FFFFFF"></path>
        <path d="M24.7503,17.0107 C20.4823,17.0107 17.0113,20.4827 17.0113,24.7497 C17.0113,29.0167 20.4823,32.4887 24.7503,32.4887 C29.0183,32.4887 32.4893,29.0167 32.4893,24.7497 C32.4893,20.4827 29.0183,17.0107 24.7503,17.0107 M24.7503,34.9887 C19.1043,34.9887 14.5113,30.3957 14.5113,24.7497 C14.5113,19.1037 19.1043,14.5107 24.7503,14.5107 C30.3963,14.5107 34.9893,19.1037 34.9893,24.7497 C34.9893,30.3957 30.3963,34.9887 24.7503,34.9887" id="Fill-6" fill="#FFFFFF"></path>
        <path d="M39.4007,13.335 C39.4007,14.675 38.3147,15.761 36.9747,15.761 C35.6347,15.761 34.5477,14.675 34.5477,13.335 C34.5477,11.995 35.6347,10.909 36.9747,10.909 C38.3147,10.909 39.4007,11.995 39.4007,13.335" id="Fill-8" fill="#FFFFFF"></path>
    </g>
</svg>