<?xml version="1.0" encoding="UTF-8"?>
<svg width="50px" height="50px" viewBox="0 0 50 50" version="1.1" xmlns="http://www.w3.org/2000/svg" xmlns:xlink="http://www.w3.org/1999/xlink">
    <!-- Generator: Sketch 53.2 (72643) - https://sketchapp.com -->
    <title>icon_email</title>
    <desc>Created with Sketch.</desc>
    <g id="icon_email" stroke="none" stroke-width="1" fill="none" fill-rule="evenodd">
        <path d="M24.9166017,9.5 L42.8606017,9.5 C43.9346017,9.5 44.9676017,9.986 45.6596017,10.804 C46.1576017,11.393 46.3036017,11.716 46.5276017,12.479 C46.7316017,13.172 46.7786017,14.472 46.3676017,15.114 C45.9906017,15.702 45.4286017,16.14 44.8986017,16.581 C44.3256017,17.058 43.7756017,17.563 43.2006017,18.038 C41.9906017,19.036 40.7336017,19.977 39.4616017,20.895 L39.2096017,21.076 C38.1216017,21.854 37.0406017,22.642 35.9606017,23.43 C34.4666017,24.52 32.9716017,25.61 31.4586017,26.673 L31.0576017,26.956 C29.1116017,28.329 27.1006017,29.75 24.8406017,29.75 C22.5806017,29.75 20.5686017,28.329 18.6226017,26.956 L18.2226017,26.673 C16.7086017,25.61 15.2146017,24.52 13.7206017,23.43 C12.6396017,22.642 11.5596017,21.854 10.4716017,21.076 L10.2196017,20.895 C8.9466017,19.977 7.6896017,19.036 6.4796017,18.038 C5.9046017,17.563 5.3546017,17.058 4.7816017,16.581 C4.2526017,16.14 3.6896017,15.702 3.3126017,15.114 C2.9016017,14.472 2.9486017,13.172 3.1526017,12.479 C3.3776017,11.716 3.5226017,11.393 4.0206017,10.804 C4.7136017,9.986 5.7466017,9.5 6.8196017,9.5 L24.7646017,9.5" id="Fill-10" fill="#FFFFFF"></path>
        <path d="M40.6637017,23.1094 C39.5827017,23.8824 38.5077017,24.6664 37.4337017,25.4504 C35.9277017,26.5484 34.4207017,27.6474 32.8947017,28.7184 L32.4997017,28.9974 C30.3407017,30.5224 27.8937017,32.2504 24.8407017,32.2504 C21.7867017,32.2504 19.3397017,30.5224 17.1817017,28.9974 L16.7857017,28.7184 C15.2597017,27.6474 13.7537017,26.5484 12.2467017,25.4504 C11.1727017,24.6664 10.0987017,23.8824 9.0177017,23.1094 C6.7827017,21.5114 4.6777017,19.9504 3.0007017,18.4304 L3.0007017,36.2924 C3.0007017,38.3084 4.8037017,39.9584 6.8197017,39.9584 L42.8607017,39.9584 C44.8777017,39.9584 46.6807017,38.3084 46.6807017,36.2924 L46.6807017,18.4314 C45.0037017,19.9504 42.8977017,21.5114 40.6637017,23.1094" id="Fill-12" fill="#FFFFFF"></path>
    </g>
</svg>