<?xml version="1.0" encoding="UTF-8"?>
<svg width="50px" height="50px" viewBox="0 0 50 50" version="1.1" xmlns="http://www.w3.org/2000/svg" xmlns:xlink="http://www.w3.org/1999/xlink">
    <!-- Generator: Sketch 53.2 (72643) - https://sketchapp.com -->
    <title>icon_line</title>
    <desc>Created with Sketch.</desc>
    <g id="icon_line" stroke="none" stroke-width="1" fill="none" fill-rule="evenodd">
        <path d="M48,21.7647781 C48,11.4707781 37.675,3.09377808 25,3.09377808 C12.326,3.09377808 2,11.4707781 2,21.7647781 C2,30.9897781 10.184,38.7157781 21.234,40.1837781 C21.983,40.3407781 23.001,40.6787781 23.264,41.3147781 C23.495,41.8897781 23.413,42.7817781 23.339,43.3897781 L23.023,45.3427781 C22.934,45.9187781 22.56,47.6127781 25.03,46.5787781 C27.509,45.5457781 38.29,38.7637781 43.118,33.2057781 C46.421,29.5907781 48,25.8757781 48,21.7647781 L48,21.7647781 Z M16.002,27.8917781 L11.426,27.8917781 C10.759,27.8917781 10.213,27.3457781 10.213,26.6857781 L10.213,17.5427781 C10.213,16.8777781 10.759,16.3307781 11.426,16.3307781 C12.093,16.3307781 12.632,16.8777781 12.632,17.5427781 L12.632,25.4797781 L16.002,25.4797781 C16.667,25.4797781 17.208,26.0187781 17.208,26.6857781 C17.208,27.3457781 16.66,27.8917781 16.002,27.8917781 L16.002,27.8917781 Z M20.727,26.6857781 C20.727,27.3457781 20.187,27.8917781 19.514,27.8917781 C18.854,27.8917781 18.316,27.3457781 18.316,26.6857781 L18.316,17.5427781 C18.316,16.8777781 18.855,16.3307781 19.522,16.3307781 C20.188,16.3307781 20.729,16.8777781 20.729,17.5427781 L20.727,26.6857781 Z M31.732,26.6857781 C31.732,27.2017781 31.395,27.6667781 30.899,27.8307781 C30.78,27.8677781 30.646,27.8897781 30.519,27.8897781 C30.115,27.8897781 29.77,27.7107781 29.537,27.4107781 L24.858,21.0477781 L24.858,26.6837781 C24.858,27.3437781 24.324,27.8897781 23.652,27.8897781 C22.985,27.8897781 22.446,27.3437781 22.446,26.6837781 L22.446,17.5417781 C22.446,17.0257781 22.784,16.5627781 23.27,16.3967781 C23.389,16.3507781 23.529,16.3357781 23.644,16.3357781 C24.017,16.3357781 24.362,16.5377781 24.594,16.8227781 L29.31,23.2007781 L29.31,17.5417781 C29.31,16.8757781 29.849,16.3297781 30.516,16.3297781 C31.183,16.3297781 31.729,16.8757781 31.729,17.5417781 L31.732,26.6857781 Z M39.112,20.9057781 C39.786,20.9057781 40.325,21.4517781 40.325,22.1117781 C40.325,22.7787781 39.786,23.3247781 39.112,23.3247781 L35.75,23.3247781 L35.75,25.4807781 L39.112,25.4807781 C39.786,25.4807781 40.325,26.0197781 40.325,26.6867781 C40.325,27.3467781 39.786,27.8927781 39.112,27.8927781 L34.545,27.8927781 C33.88,27.8927781 33.342,27.3467781 33.342,26.6867781 L33.342,17.5447781 C33.342,16.8787781 33.881,16.3327781 34.545,16.3327781 L39.121,16.3327781 C39.788,16.3327781 40.327,16.8787781 40.327,17.5447781 C40.327,18.2117781 39.788,18.7507781 39.113,18.7507781 L35.751,18.7507781 L35.751,20.9067781 L39.112,20.9057781 Z" id="Fill-1" fill="#FFFFFF"></path>
    </g>
</svg>