<?xml version="1.0" encoding="UTF-8"?>
<svg width="50px" height="50px" viewBox="0 0 50 50" version="1.1" xmlns="http://www.w3.org/2000/svg" xmlns:xlink="http://www.w3.org/1999/xlink">
    <!-- Generator: Sketch 53.2 (72643) - https://sketchapp.com -->
    <title>icon_fb</title>
    <desc>Created with Sketch.</desc>
    <g id="icon_fb" stroke="none" stroke-width="1" fill="none" fill-rule="evenodd">
        <path d="M28.2466743,44.9682477 C28.0482223,44.9761858 27.9212131,44.9920619 27.7942038,44.9920619 C25.0793808,44.9920619 22.3724958,44.9841238 19.6576728,45 C19.276645,45 19.17345,44.896805 19.17345,44.5157772 C19.1813881,38.1970663 19.1813881,31.8704173 19.1813881,25.5517064 C19.1813881,25.3850068 19.1813881,25.2183071 19.1813881,25.003979 C17.7049054,25.003979 16.2681131,25.003979 14.8075065,25.003979 C14.8075065,22.7495645 14.8075065,20.5348405 14.8075065,18.2566118 C14.95833,18.2566118 15.1012155,18.2566118 15.2361628,18.2566118 C16.4268747,18.2566118 17.6175865,18.2486737 18.8082984,18.2645499 C19.1099454,18.2645499 19.1893262,18.177231 19.1893262,17.8835221 C19.17345,16.1133305 19.17345,14.3352008 19.1893262,12.5650091 C19.1972642,11.3266688 19.3957162,10.1200808 19.9672579,9.00081167 C20.78488,7.42113394 22.0787869,6.39712175 23.7140312,5.76207543 C25.0476285,5.23816222 26.4526685,5.04764832 27.8656465,5.02383408 C30.1676894,4.99208177 32.4697324,5.00795792 34.7717753,5.00001985 C34.9861034,5.00001985 35.1607411,4.99208177 35.1607411,5.29372877 C35.1528031,7.4767005 35.1528031,9.65967223 35.1528031,11.842644 C35.1528031,11.8664582 35.144865,11.8902724 35.1131127,11.9934675 C34.9781653,11.9934675 34.8273418,11.9934675 34.6765183,11.9934675 C33.2476641,11.9934675 31.8188099,11.9855294 30.3899557,11.9934675 C29.5643954,11.9934675 28.8975968,12.3268668 28.4768786,13.049232 C28.3498693,13.2635601 28.2704886,13.5413929 28.2704886,13.7954114 C28.2466743,15.1448848 28.2704886,16.4943583 28.2546124,17.8438317 C28.2546124,18.1613549 28.3498693,18.2486737 28.6594544,18.2486737 C30.6439742,18.2327976 32.6284939,18.2407356 34.6130137,18.2407356 C34.7717753,18.2407356 34.9225988,18.2407356 35.1924935,18.2407356 C34.9146607,20.5110262 34.644766,22.7336884 34.3669332,24.9801647 C32.3030327,24.9801647 30.2946987,24.9801647 28.2466743,24.9801647 C28.2466743,31.6560892 28.2466743,38.2923232 28.2466743,44.9682477 Z" id="Path" fill="#FFFFFF" fill-rule="nonzero"></path>
    </g>
</svg>