<svg id="Layer_2" data-name="Layer 2" xmlns="http://www.w3.org/2000/svg" viewBox="0 0 103.58 98.42"><defs><style>.cls-1{fill:#f7e9e8;}</style></defs><title>img_leaf</title><path class="cls-1" d="M58.26,32c.12.06.22.14.28.12a13,13,0,0,0,2-.92c2.48-1.44,5-2.82,7.56-4.11q.88-.45,1.74-.94a2.22,2.22,0,0,0,.54-.45A1.2,1.2,0,0,0,70,24c-.22-.09-.46-.11-.67-.21a1.23,1.23,0,0,1-.77-.94c-.09-.5-.26-1-.39-1.47.33-.65.67-1.27,1-1.91a18.43,18.43,0,0,0,1-2.62,21.37,21.37,0,0,1,1.41-3.23,7.47,7.47,0,0,1,1.26-1.87c.29-.31.54-.65.82-1a10.63,10.63,0,0,1,4.6-3.16A21.69,21.69,0,0,1,84.2,6.43a2.5,2.5,0,0,1,.42,0,39.5,39.5,0,0,1,4.75.63A9.54,9.54,0,0,1,93.4,9a5.14,5.14,0,0,0,.93.63,12.84,12.84,0,0,1,1.86,1.28A6,6,0,0,1,97.28,12a6.84,6.84,0,0,0,.64.75,2.44,2.44,0,0,0,1.32.76c.7.11,1.32.48,2,.63a.42.42,0,0,1,.32.41,1.19,1.19,0,0,0,.45,1,1.6,1.6,0,0,1,.59,1.24,3.05,3.05,0,0,0,.39,1.33,6.73,6.73,0,0,1,.57,2.32.71.71,0,0,1,0,.41,4.13,4.13,0,0,0-.4,1.91,2.06,2.06,0,0,1-.08.41.74.74,0,0,1-.41.54A3.12,3.12,0,0,0,101,25.32c-.28.54-.59,1.07-.9,1.6a21,21,0,0,1-3.31,4.2,8.72,8.72,0,0,1-1.81,1.34c-.53.3-1.08.56-1.63.84a3.18,3.18,0,0,1-1.65.2,8.28,8.28,0,0,0-2.91-.39,3.7,3.7,0,0,1-.42,0,1.56,1.56,0,0,1-1-.47,1.09,1.09,0,0,0-.75-.33c-1.16-.14-2.3-.45-3.48-.56a2.17,2.17,0,0,1-.8-.25A4.59,4.59,0,0,0,80.84,31a5.79,5.79,0,0,1-2.37-.85,1.86,1.86,0,0,0-.51-.24,4,4,0,0,1-1.21-.7,17.37,17.37,0,0,0-3-1.87,1,1,0,0,0-.81,0c-.34.15-.69.3-1,.49-1.72,1-3.45,1.92-5.15,2.93a16.81,16.81,0,0,0-2.66,1.83s0,.17,0,.25.08.06.12.06a.94.94,0,0,0,.28,0l.7-.12a20.41,20.41,0,0,1,3.37-.26,19.28,19.28,0,0,1,7.82,1.59c.73.31,1.49.58,2.23.87s1.25.42,1.84.72a19.57,19.57,0,0,0,2.22.91,6.45,6.45,0,0,1,1.77.84,2.66,2.66,0,0,0,.77.34c.22.07.51,0,.6.28a1.93,1.93,0,0,1,.06.69,1.15,1.15,0,0,1-.12.54,1,1,0,0,0,0,1.17.54.54,0,0,1,0,.54,2,2,0,0,0,0,1.51,4.48,4.48,0,0,1,.25,1.1,14,14,0,0,0,.64,3A2.49,2.49,0,0,1,86.32,49a6.86,6.86,0,0,1-1.24,1.53,4.9,4.9,0,0,0-.56.63,12.54,12.54,0,0,1-1.05,1.14A10.65,10.65,0,0,0,82,53.83a20.15,20.15,0,0,1-2.56,2.61,9.66,9.66,0,0,0-1,1,9.49,9.49,0,0,1-1.24,1.14c-.18.15-.38.27-.57.41a8.56,8.56,0,0,1-1.24.92c-.41.21-.87.33-1.28.56a2.36,2.36,0,0,1-.81.21,5,5,0,0,1-.7,0A8.16,8.16,0,0,0,70.4,61c-.59.16-1.19.29-1.79.41a2.55,2.55,0,0,1-.7,0,7.82,7.82,0,0,1-2.09-.79c-.38-.28-.76-.56-1.12-.86a4,4,0,0,1-1.51-2.15,1.69,1.69,0,0,0-.5-.83A9.17,9.17,0,0,1,61.35,55a3.14,3.14,0,0,0-.66-.72,1.1,1.1,0,0,0-1-.32,1,1,0,0,1-.8-.19,2.31,2.31,0,0,1-1-.93,1.46,1.46,0,0,0-.59-.59,12,12,0,0,1-2.08-1.68,2.14,2.14,0,0,1-.58-1.1,6.05,6.05,0,0,1,0-2.93,5.7,5.7,0,0,0,.23-1.8,11.23,11.23,0,0,1,.23-2.1,15.13,15.13,0,0,1,.26-1.52,8.31,8.31,0,0,1,.89-2.8.9.9,0,0,0,.15-.39.54.54,0,0,0-.13-.52.57.57,0,0,0-.52-.1,3.69,3.69,0,0,0-.38.2c-.24.15-.47.31-.7.48-3.15,2.3-6.33,4.55-9.38,7-.7.56-1.35,1.17-2.06,1.71-1.12.86-2.26,1.69-3.39,2.53l-.33.27c-.82.7-1.65,1.4-2.49,2.07a31.9,31.9,0,0,0-3,2.81,2.15,2.15,0,0,0-.3.46c-.06.1,0,.18.1.23s.08.05.12.06l2,.15A5.69,5.69,0,0,0,38.15,55a8.25,8.25,0,0,1,1-.19c.37-.07.75-.11,1.11-.22a2.17,2.17,0,0,0,1.28-.82,2.14,2.14,0,0,1,1.13-.8,8.2,8.2,0,0,0,1.65-.78,2.28,2.28,0,0,1,2-.25,1.37,1.37,0,0,0,.54.15c1-.09,1.89.51,2.83.76.54.14,1.07.34,1.61.52s1.17.35,1.73.59c.86.37,1.72.76,2.55,1.2a9.13,9.13,0,0,1,1.41.93c.7.55,1.38,1.14,2,1.73A11.51,11.51,0,0,1,61,60.09c0,.06,0,.23,0,.26A21.83,21.83,0,0,0,59,62.4a2.87,2.87,0,0,1-1.59.84c-1,.17-2,.33-3.06.52a25.84,25.84,0,0,1-3.51.25,5,5,0,0,1-1.94-.28,5,5,0,0,0-1.23-.31,3.3,3.3,0,0,1-1.55-.6,6.22,6.22,0,0,1-.71-.45,7.22,7.22,0,0,0-2.5-1.25,2.2,2.2,0,0,1-1-.55,2.76,2.76,0,0,0-1.21-.68c-.93-.33-1.85-.69-2.75-1.07a2,2,0,0,0-1.09-.18,8,8,0,0,0-1.66.29,2.34,2.34,0,0,1-1.52-.1,1,1,0,0,1-.45-.33.63.63,0,0,0-.87-.18,7.09,7.09,0,0,0-1.11.62,20,20,0,0,1-2.77,1.67,20.42,20.42,0,0,0-3.65,2.64,5.65,5.65,0,0,0-1.26,1.51,4.55,4.55,0,0,1-1.42,1.72.86.86,0,0,0-.2.2c-1.19,1.51-2.57,2.88-3.66,4.48-.24.35-.49.69-.74,1a13.09,13.09,0,0,0-1.41,2.27c-.24.51-.52,1-.76,1.51a.28.28,0,0,0,.08.24.31.31,0,0,0,.25.07,1.26,1.26,0,0,0,.38-.18,16.36,16.36,0,0,1,3.56-1.69c.18-.06.36-.11.53-.18A1.41,1.41,0,0,0,21,73.6c.42-.79.85-1.57,1.27-2.36a5.62,5.62,0,0,0,.34-.77A6.62,6.62,0,0,1,24,68.2c.54-.59,1.07-1.19,1.63-1.76a19.1,19.1,0,0,1,3.94-3c.16-.1.34-.16.5-.26a13.34,13.34,0,0,1,6.29-1.87,8.42,8.42,0,0,1,4.12.76,17,17,0,0,1,2.28,1.1,12.29,12.29,0,0,0,1.53.71,35.21,35.21,0,0,1,3.21,1.45A9.56,9.56,0,0,1,50,67.44a28.34,28.34,0,0,0,3.32,3.25.32.32,0,0,1,.12.37c-.59,1.33-.9,2.76-1.45,4.12a8.07,8.07,0,0,0-.31,1.08,10.88,10.88,0,0,1-1.39,3.23,22.63,22.63,0,0,1-2.88,3.65,3.93,3.93,0,0,1-.54.45,14.8,14.8,0,0,1-2.31,1.35,5.54,5.54,0,0,1-.8.26,10,10,0,0,0-2.14.71,2.06,2.06,0,0,1-1,.2,4.28,4.28,0,0,0-1.91.43,2.3,2.3,0,0,1-.4.12.89.89,0,0,1-.69-.07c-.33-.18-.64-.39-1-.6-.6.12-1.21.13-1.8.3a.8.8,0,0,1-1-.3,1.07,1.07,0,0,0-.7-.43c-.23,0-.45-.12-.68-.16a6.06,6.06,0,0,1-2.73-1.36,4.42,4.42,0,0,0-.72-.43,3,3,0,0,1-1-.93,1,1,0,0,1-.2-.51.81.81,0,0,0-.66-.81c-.68-.19-1.32-.49-2-.7A6.74,6.74,0,0,1,23,79.56c-.26-.2-.54-.37-.8-.57a1.67,1.67,0,0,1-.74-1.15c-.06-.44-.41-.61-.81-.67a2.64,2.64,0,0,0-1.24.18,10.11,10.11,0,0,0-3.88,2.24c-.71.62-1.4,1.25-2.05,1.93a23.54,23.54,0,0,0-1.64,1.93,6.89,6.89,0,0,0-.61,1.11c-.26.5-.49,1-.75,1.52a22.73,22.73,0,0,0-2,4.8A15.12,15.12,0,0,1,7.65,93c-.2.48-.42.94-.65,1.41a9.59,9.59,0,0,1-.65,1.25,7.52,7.52,0,0,0-.91,1.74,1.55,1.55,0,0,1-1.21,1.05l-.8-.59a.59.59,0,0,1,0-.23c.3-1,.62-2.07.92-3.11.2-.68.34-1.37.56-2A32.2,32.2,0,0,1,6.8,87.75c.15-.29.26-.6.4-.9.23-.51.45-1,.72-1.53a4.26,4.26,0,0,0,.52-1.45c.11-.74.24-1.48.36-2.22,0-.14,0-.31.07-.41a5.43,5.43,0,0,0,.62-2.43c.18-1.16.29-2.33.46-3.5.06-.46.17-.92.28-1.38A20.59,20.59,0,0,0,11,68.78q.07-1.05.1-2.11A8.26,8.26,0,0,0,10.35,63a6.76,6.76,0,0,1-.44-1,2.62,2.62,0,0,0-1.44-1.64A5,5,0,0,0,7.83,60a9.77,9.77,0,0,1-4-3,17.9,17.9,0,0,1-2.32-4A14.19,14.19,0,0,1,.19,47,24.43,24.43,0,0,0,0,44a6.39,6.39,0,0,1,.24-2.5,23.66,23.66,0,0,1,1.78-4.6A8.13,8.13,0,0,1,6,33.1c1.5-.68,3-1.42,4.43-2.18a13.07,13.07,0,0,1,3.93-1.52c.5-.08.93-.41,1.45-.52a7,7,0,0,0,1.29-.54.56.56,0,0,1,.64.12c.38.35.78.68,1.15,1a3,3,0,0,1,.57.61,4.35,4.35,0,0,0,1.75,1.59c.21.11.4.26.61.35a9.09,9.09,0,0,1,3.91,3.54,6.59,6.59,0,0,1,.79,2c.31,1.09.58,2.18.81,3.29a11.68,11.68,0,0,1,.16,1.82c0,.52,0,1,0,1.55a3.89,3.89,0,0,1-.22,1.66A2.81,2.81,0,0,0,27.15,47a22.67,22.67,0,0,1-.43,2.78.67.67,0,0,1-.09.26,15.65,15.65,0,0,1-1,1.68,21.53,21.53,0,0,1-2.19,2.58,6.87,6.87,0,0,1-.51.48c-1.05.8-2,1.68-3,2.57-.21.19-.45.35-.64.54A5,5,0,0,1,17,59.15a19.42,19.42,0,0,0-2,.71,1,1,0,0,0-.67,1A21.66,21.66,0,0,1,14,64.21c-.06.61-.12,1.22-.17,1.82a6.85,6.85,0,0,1-.43,1.77c-.37,1.06-.63,2.17-.9,3.26a3.45,3.45,0,0,0-.07,1.12,13.19,13.19,0,0,1-.14,3.37,5.25,5.25,0,0,0,0,1c0,.06.1.16.18.17a.28.28,0,0,0,.24-.07,11.15,11.15,0,0,0,.69-1.06c1.17-2.15,2.48-4.22,3.85-6.24a47.4,47.4,0,0,1,4.12-5.19l2.35-2.63a3.14,3.14,0,0,0,.36-.43,7.42,7.42,0,0,1,1.51-1.65c.68-.6,1.13-1.38,1.77-2,.17-.16.3-.38.5-.48a4,4,0,0,0,1.17-1c.61-.65,1.26-1.26,1.9-1.89.17-.17.35-.32.51-.49a4.38,4.38,0,0,0,1.17-2.21c.21-1.11.57-2.18.78-3.28a33.29,33.29,0,0,1,1.25-4c.17-.54.4-1.06.59-1.59a5,5,0,0,0,.22-.81,2,2,0,0,0-.17-1.37c-.11-.2-.14-.46-.27-.65-.77-1.08-1.1-2.39-1.81-3.51a1.71,1.71,0,0,1-.16-.39,35.14,35.14,0,0,1-1.79-8,11.39,11.39,0,0,1,.38-4.47,9.71,9.71,0,0,1,1.8-3.48,12,12,0,0,1,6-3.78,11.37,11.37,0,0,1,3.32-.57,16.27,16.27,0,0,1,3.35.35,8.43,8.43,0,0,0,2.93.26,6.16,6.16,0,0,1,1.13,0c.39,0,.74.09.84.58a2.39,2.39,0,0,0,.79,1.14,2.4,2.4,0,0,1,.67,1.37,8.74,8.74,0,0,1,.2,2.1,2.65,2.65,0,0,0,.24,1.37,3.54,3.54,0,0,1,.3,1.93c0,.09,0,.19,0,.28a5.66,5.66,0,0,0,.4,2.76,1.68,1.68,0,0,1-.11,1.49c-.27.55-.57,1.08-.87,1.61a.7.7,0,0,1-.16.23,3.78,3.78,0,0,0-1.14,1.75.9.9,0,0,1-.2.37,5.63,5.63,0,0,0-1.2,1.9,10.26,10.26,0,0,1-2.39,2.93,2.48,2.48,0,0,1-.58.4,8.8,8.8,0,0,1-3.2,1,5.55,5.55,0,0,0-2.8.87,1,1,0,0,1-1.17,0,1.5,1.5,0,0,0-.54-.14.65.65,0,0,0-.7.37,4.26,4.26,0,0,0-.22.67A13.89,13.89,0,0,1,37.25,44c-.26.55-.49,1.12-.75,1.67a5.77,5.77,0,0,1-.39.74A3.42,3.42,0,0,0,35.52,48s0,.09,0,.14c-.24,1.3-.24,1.6,0,1.58.57-.05.83-.55,1.22-.86,1.21-1,2.4-2,3.6-2.94.44-.36.88-.71,1.3-1.08a85,85,0,0,1,6.94-5.54,31,31,0,0,0,3.21-2.75,7.27,7.27,0,0,1,2.44-1.63,2.59,2.59,0,0,0,1.43-1.28,49.4,49.4,0,0,0,2.69-5.74,30.79,30.79,0,0,0,.9-3,3.85,3.85,0,0,0,.14-.83,35.27,35.27,0,0,0-.06-6.9,23.12,23.12,0,0,0-.85-3.85A9.9,9.9,0,0,1,58.2,8c.19-.82.4-1.64.59-2.47A4.08,4.08,0,0,1,60.64,3c.2-.13.41-.22.61-.35a2.07,2.07,0,0,0,.55-.43A10,10,0,0,1,63.31.74a3.9,3.9,0,0,0,.46-.53.65.65,0,0,1,1.06.15,8.82,8.82,0,0,0,1.34,2.14,3.9,3.9,0,0,1,.7,1.82A22.69,22.69,0,0,1,67,8.83a17.89,17.89,0,0,1-.3,1.81,4.85,4.85,0,0,1-.83,1.93,6.59,6.59,0,0,0-1,1.86,3.43,3.43,0,0,1-.36.76,5,5,0,0,0-.66,2.14,22.55,22.55,0,0,1-.94,4.11,6.86,6.86,0,0,0-.27,1.09,11.3,11.3,0,0,1-1.08,3.34c-.2.42-.37.86-.53,1.3a16.66,16.66,0,0,1-1.44,3.06c-.24.4-.57.75-.85,1.12Z"/></svg>