<svg id="Layer_2" data-name="Layer 2" xmlns="http://www.w3.org/2000/svg" viewBox="0 0 55 70"><defs><style>.cls-1{fill:#fff;}</style></defs><title>logo_white</title><path class="cls-1" d="M18.67,29.33h-.35a2.19,2.19,0,0,1-1.11-.22.8.8,0,0,1-.37-.39,5.55,5.55,0,0,1-.08-1.24v-7l7,10.11.1.15h.88V20.61a3.34,3.34,0,0,1,.09-1,.71.71,0,0,1,.35-.35,2.4,2.4,0,0,1,.94-.24l.32,0V18H21.82v1.1h.35a2.61,2.61,0,0,1,1,.16.73.73,0,0,1,.42.32,2.43,2.43,0,0,1,.11.94V26.4l-5.78-8.29-.1-.15H14.06v1.1h.35a2.57,2.57,0,0,1,1,.09c.05,0,.13.14.19.36a8.41,8.41,0,0,1,.11,1.73v6.24a6.57,6.57,0,0,1-.06,1.26c0,.06-.08.17-.33.32a2.43,2.43,0,0,1-1,.26l-.32,0v1.07h4.74Z"/><path class="cls-1" d="M40.1,50.72a1.27,1.27,0,0,1-.35-.52L35.55,39.4h-.79l-3.23,8.39c-.35.88-.38,1-.39,1a6.46,6.46,0,0,1-.79,1.71,1.38,1.38,0,0,1-.86.43l-.29,0v1h3.92v-1.1h-.35a1,1,0,0,1-.63-.19.64.64,0,0,1-.2-.53,7.38,7.38,0,0,1,.6-2l.19-.52h3.63l.74,2a5.85,5.85,0,0,1,.34,1c0,.15,0,.17-.07.18a2.54,2.54,0,0,1-.91.09h-.35V52h5V51l-.31,0A1.26,1.26,0,0,1,40.1,50.72Zm-7-4.11,1.4-3.68L36,46.61Z"/><path class="cls-1" d="M52,26c-.64-6.17-2.11-12.55-8.47-17.51A19.58,19.58,0,0,0,37,5.17,31.47,31.47,0,0,0,27.5,3.88,31.46,31.46,0,0,0,18,5.17a19.81,19.81,0,0,0-6.56,3.31C5.1,13.47,3.62,19.86,3,26a84.05,84.05,0,0,0-.43,9A84.06,84.06,0,0,0,3,44c.64,6.17,2.11,12.55,8.46,17.51A19.6,19.6,0,0,0,18,64.83a31.44,31.44,0,0,0,9.47,1.29A31.45,31.45,0,0,0,37,64.83a19.81,19.81,0,0,0,6.56-3.31C49.9,56.54,51.38,50.15,52,44a84,84,0,0,0,.43-9A84.28,84.28,0,0,0,52,26ZM50.57,43.83c-.61,5.85-2,11.9-8,16.56a18.48,18.48,0,0,1-6.06,3,30.07,30.07,0,0,1-9,1.23,30.07,30.07,0,0,1-9-1.23,18.74,18.74,0,0,1-6.09-3.07C6.42,55.72,5,49.67,4.43,43.83A82.44,82.44,0,0,1,4,35a82.42,82.42,0,0,1,.42-8.82c.61-5.85,2-11.9,8-16.56a18.41,18.41,0,0,1,6.07-3,30.07,30.07,0,0,1,9-1.23,30.08,30.08,0,0,1,9,1.23,18.72,18.72,0,0,1,6.09,3.07c5.95,4.64,7.33,10.69,7.94,16.54A82.5,82.5,0,0,1,51,35,82.39,82.39,0,0,1,50.57,43.83Z"/><polygon class="cls-1" points="39.87 23.39 39.11 22.63 15.24 46.49 15.13 46.61 15.89 47.37 39.76 23.51 39.87 23.39"/></svg>